<?xml version="1.0" encoding="UTF-8" standalone="no"?><svg xmlns="http://www.w3.org/2000/svg" xmlns:xlink="http://www.w3.org/1999/xlink" contentScriptType="application/ecmascript" contentStyleType="text/css" height="611px" preserveAspectRatio="none" style="width:770px;height:611px;" version="1.1" viewBox="0 0 770 611" width="770px" zoomAndPan="magnify"><defs><filter height="300%" id="fu4538b4iek3l" width="300%" x="-1" y="-1"><feGaussianBlur result="blurOut" stdDeviation="2.0"/><feColorMatrix in="blurOut" result="blurOut2" type="matrix" values="0 0 0 0 0 0 0 0 0 0 0 0 0 0 0 0 0 0 .4 0"/><feOffset dx="4.0" dy="4.0" in="blurOut2" result="blurOut3"/><feBlend in="SourceGraphic" in2="blurOut3" mode="normal"/></filter></defs><g><rect fill="#FFFFFF" filter="url(#fu4538b4iek3l)" height="75.3984" style="stroke: #000000; stroke-width: 2.0;" width="601" x="147" y="470.7578"/><line style="stroke: #A80036; stroke-width: 1.0; stroke-dasharray: 5.0,5.0;" x1="39" x2="39" y1="38.2969" y2="563.1563"/><line style="stroke: #A80036; stroke-width: 1.0; stroke-dasharray: 5.0,5.0;" x1="180" x2="180" y1="38.2969" y2="563.1563"/><line style="stroke: #A80036; stroke-width: 1.0; stroke-dasharray: 5.0,5.0;" x1="311" x2="311" y1="38.2969" y2="563.1563"/><line style="stroke: #A80036; stroke-width: 1.0; stroke-dasharray: 5.0,5.0;" x1="434" x2="434" y1="38.2969" y2="563.1563"/><line style="stroke: #A80036; stroke-width: 1.0; stroke-dasharray: 5.0,5.0;" x1="589" x2="589" y1="38.2969" y2="563.1563"/><line style="stroke: #A80036; stroke-width: 1.0; stroke-dasharray: 5.0,5.0;" x1="708" x2="708" y1="38.2969" y2="563.1563"/><rect fill="#FEFECE" filter="url(#fu4538b4iek3l)" height="30.2969" style="stroke: #A80036; stroke-width: 1.5;" width="58" x="8" y="3"/><text fill="#000000" font-family="sans-serif" font-size="14" lengthAdjust="spacingAndGlyphs" textLength="44" x="15" y="22.9951">Spring</text><rect fill="#FEFECE" filter="url(#fu4538b4iek3l)" height="30.2969" style="stroke: #A80036; stroke-width: 1.5;" width="58" x="8" y="562.1563"/><text fill="#000000" font-family="sans-serif" font-size="14" lengthAdjust="spacingAndGlyphs" textLength="44" x="15" y="582.1514">Spring</text><rect fill="#FEFECE" filter="url(#fu4538b4iek3l)" height="30.2969" style="stroke: #A80036; stroke-width: 1.5;" width="42" x="157" y="3"/><text fill="#000000" font-family="sans-serif" font-size="14" lengthAdjust="spacingAndGlyphs" textLength="28" x="164" y="22.9951">业务</text><rect fill="#FEFECE" filter="url(#fu4538b4iek3l)" height="30.2969" style="stroke: #A80036; stroke-width: 1.5;" width="42" x="157" y="562.1563"/><text fill="#000000" font-family="sans-serif" font-size="14" lengthAdjust="spacingAndGlyphs" textLength="28" x="164" y="582.1514">业务</text><rect fill="#FEFECE" filter="url(#fu4538b4iek3l)" height="30.2969" style="stroke: #A80036; stroke-width: 1.5;" width="88" x="265" y="3"/><text fill="#000000" font-family="sans-serif" font-size="14" lengthAdjust="spacingAndGlyphs" textLength="74" x="272" y="22.9951">AsyncTask</text><rect fill="#FEFECE" filter="url(#fu4538b4iek3l)" height="30.2969" style="stroke: #A80036; stroke-width: 1.5;" width="88" x="265" y="562.1563"/><text fill="#000000" font-family="sans-serif" font-size="14" lengthAdjust="spacingAndGlyphs" textLength="74" x="272" y="582.1514">AsyncTask</text><rect fill="#FEFECE" filter="url(#fu4538b4iek3l)" height="30.2969" style="stroke: #A80036; stroke-width: 1.5;" width="130" x="367" y="3"/><text fill="#000000" font-family="sans-serif" font-size="14" lengthAdjust="spacingAndGlyphs" textLength="116" x="374" y="22.9951">AsyncTask Poller</text><rect fill="#FEFECE" filter="url(#fu4538b4iek3l)" height="30.2969" style="stroke: #A80036; stroke-width: 1.5;" width="130" x="367" y="562.1563"/><text fill="#000000" font-family="sans-serif" font-size="14" lengthAdjust="spacingAndGlyphs" textLength="116" x="374" y="582.1514">AsyncTask Poller</text><rect fill="#FEFECE" filter="url(#fu4538b4iek3l)" height="30.2969" style="stroke: #A80036; stroke-width: 1.5;" width="153" x="511" y="3"/><text fill="#000000" font-family="sans-serif" font-size="14" lengthAdjust="spacingAndGlyphs" textLength="139" x="518" y="22.9951">AsyncTask Executer</text><rect fill="#FEFECE" filter="url(#fu4538b4iek3l)" height="30.2969" style="stroke: #A80036; stroke-width: 1.5;" width="153" x="511" y="562.1563"/><text fill="#000000" font-family="sans-serif" font-size="14" lengthAdjust="spacingAndGlyphs" textLength="139" x="518" y="582.1514">AsyncTask Executer</text><rect fill="#FEFECE" filter="url(#fu4538b4iek3l)" height="30.2969" style="stroke: #A80036; stroke-width: 1.5;" width="56" x="678" y="3"/><text fill="#000000" font-family="sans-serif" font-size="14" lengthAdjust="spacingAndGlyphs" textLength="42" x="685" y="22.9951">REDIS</text><rect fill="#FEFECE" filter="url(#fu4538b4iek3l)" height="30.2969" style="stroke: #A80036; stroke-width: 1.5;" width="56" x="678" y="562.1563"/><text fill="#000000" font-family="sans-serif" font-size="14" lengthAdjust="spacingAndGlyphs" textLength="42" x="685" y="582.1514">REDIS</text><rect fill="#EEEEEE" filter="url(#fu4538b4iek3l)" height="3" style="stroke: #EEEEEE; stroke-width: 1.0;" width="755" x="3" y="68.8633"/><line style="stroke: #000000; stroke-width: 1.0;" x1="3" x2="758" y1="68.8633" y2="68.8633"/><line style="stroke: #000000; stroke-width: 1.0;" x1="3" x2="758" y1="71.8633" y2="71.8633"/><rect fill="#EEEEEE" filter="url(#fu4538b4iek3l)" height="23.1328" style="stroke: #000000; stroke-width: 2.0;" width="126" x="317.5" y="58.2969"/><text fill="#000000" font-family="sans-serif" font-size="13" font-weight="bold" lengthAdjust="spacingAndGlyphs" textLength="112" x="323.5" y="74.3638">定时任务定义开启</text><line style="stroke: #A80036; stroke-width: 1.0;" x1="180" x2="222" y1="112.5625" y2="112.5625"/><line style="stroke: #A80036; stroke-width: 1.0;" x1="222" x2="222" y1="112.5625" y2="125.5625"/><line style="stroke: #A80036; stroke-width: 1.0;" x1="181" x2="222" y1="125.5625" y2="125.5625"/><polygon fill="#A80036" points="191,121.5625,181,125.5625,191,129.5625,187,125.5625" style="stroke: #A80036; stroke-width: 1.0;"/><text fill="#000000" font-family="sans-serif" font-size="13" font-weight="bold" lengthAdjust="spacingAndGlyphs" textLength="9" x="187" y="107.4966">1</text><text fill="#000000" font-family="sans-serif" font-size="13" lengthAdjust="spacingAndGlyphs" textLength="104" x="200" y="107.4966">开启异步任务注解</text><line style="stroke: #A80036; stroke-width: 1.0;" x1="180" x2="222" y1="154.6953" y2="154.6953"/><line style="stroke: #A80036; stroke-width: 1.0;" x1="222" x2="222" y1="154.6953" y2="167.6953"/><line style="stroke: #A80036; stroke-width: 1.0;" x1="181" x2="222" y1="167.6953" y2="167.6953"/><polygon fill="#A80036" points="191,163.6953,181,167.6953,191,171.6953,187,167.6953" style="stroke: #A80036; stroke-width: 1.0;"/><text fill="#000000" font-family="sans-serif" font-size="13" font-weight="bold" lengthAdjust="spacingAndGlyphs" textLength="9" x="187" y="149.6294">2</text><text fill="#000000" font-family="sans-serif" font-size="13" lengthAdjust="spacingAndGlyphs" textLength="104" x="200" y="149.6294">实现异步任务接口</text><rect fill="#EEEEEE" filter="url(#fu4538b4iek3l)" height="3" style="stroke: #EEEEEE; stroke-width: 1.0;" width="755" x="3" y="196.2617"/><line style="stroke: #000000; stroke-width: 1.0;" x1="3" x2="758" y1="196.2617" y2="196.2617"/><line style="stroke: #000000; stroke-width: 1.0;" x1="3" x2="758" y1="199.2617" y2="199.2617"/><rect fill="#EEEEEE" filter="url(#fu4538b4iek3l)" height="23.1328" style="stroke: #000000; stroke-width: 2.0;" width="70" x="345.5" y="185.6953"/><text fill="#000000" font-family="sans-serif" font-size="13" font-weight="bold" lengthAdjust="spacingAndGlyphs" textLength="56" x="351.5" y="201.7622">系统启动</text><polygon fill="#A80036" points="191,235.9609,181,239.9609,191,243.9609,187,239.9609" style="stroke: #A80036; stroke-width: 1.0;"/><line style="stroke: #A80036; stroke-width: 1.0;" x1="185" x2="310" y1="239.9609" y2="239.9609"/><text fill="#000000" font-family="sans-serif" font-size="13" font-weight="bold" lengthAdjust="spacingAndGlyphs" textLength="9" x="197" y="234.895">3</text><text fill="#000000" font-family="sans-serif" font-size="13" lengthAdjust="spacingAndGlyphs" textLength="78" x="210" y="234.895">扫描接口实现</text><polygon fill="#A80036" points="50,265.0938,40,269.0938,50,273.0938,46,269.0938" style="stroke: #A80036; stroke-width: 1.0;"/><line style="stroke: #A80036; stroke-width: 1.0;" x1="44" x2="310" y1="269.0938" y2="269.0938"/><text fill="#000000" font-family="sans-serif" font-size="13" font-weight="bold" lengthAdjust="spacingAndGlyphs" textLength="9" x="56" y="264.0278">4</text><text fill="#000000" font-family="sans-serif" font-size="13" lengthAdjust="spacingAndGlyphs" textLength="190" x="69" y="264.0278">通过Enhancer代理异步任务方法</text><rect fill="#EEEEEE" filter="url(#fu4538b4iek3l)" height="3" style="stroke: #EEEEEE; stroke-width: 1.0;" width="755" x="3" y="297.6602"/><line style="stroke: #000000; stroke-width: 1.0;" x1="3" x2="758" y1="297.6602" y2="297.6602"/><line style="stroke: #000000; stroke-width: 1.0;" x1="3" x2="758" y1="300.6602" y2="300.6602"/><rect fill="#EEEEEE" filter="url(#fu4538b4iek3l)" height="23.1328" style="stroke: #000000; stroke-width: 2.0;" width="98" x="331.5" y="287.0938"/><text fill="#000000" font-family="sans-serif" font-size="13" font-weight="bold" lengthAdjust="spacingAndGlyphs" textLength="84" x="337.5" y="303.1606">异步任务调用</text><line style="stroke: #A80036; stroke-width: 1.0;" x1="180" x2="222" y1="341.3594" y2="341.3594"/><line style="stroke: #A80036; stroke-width: 1.0;" x1="222" x2="222" y1="341.3594" y2="354.3594"/><line style="stroke: #A80036; stroke-width: 1.0;" x1="181" x2="222" y1="354.3594" y2="354.3594"/><polygon fill="#A80036" points="191,350.3594,181,354.3594,191,358.3594,187,354.3594" style="stroke: #A80036; stroke-width: 1.0;"/><text fill="#000000" font-family="sans-serif" font-size="13" font-weight="bold" lengthAdjust="spacingAndGlyphs" textLength="9" x="187" y="336.2935">5</text><text fill="#000000" font-family="sans-serif" font-size="13" lengthAdjust="spacingAndGlyphs" textLength="104" x="200" y="336.2935">异步任务方法调用</text><polygon fill="#A80036" points="50,379.4922,40,383.4922,50,387.4922,46,383.4922" style="stroke: #A80036; stroke-width: 1.0;"/><line style="stroke: #A80036; stroke-width: 1.0;" x1="44" x2="179" y1="383.4922" y2="383.4922"/><text fill="#000000" font-family="sans-serif" font-size="13" font-weight="bold" lengthAdjust="spacingAndGlyphs" textLength="9" x="56" y="378.4263">6</text><text fill="#000000" font-family="sans-serif" font-size="13" lengthAdjust="spacingAndGlyphs" textLength="104" x="69" y="378.4263">异步任务方法代理</text><polygon fill="#A80036" points="696,408.625,706,412.625,696,416.625,700,412.625" style="stroke: #A80036; stroke-width: 1.0;"/><line style="stroke: #A80036; stroke-width: 1.0;" x1="39" x2="702" y1="412.625" y2="412.625"/><text fill="#000000" font-family="sans-serif" font-size="13" font-weight="bold" lengthAdjust="spacingAndGlyphs" textLength="9" x="46" y="407.5591">7</text><text fill="#000000" font-family="sans-serif" font-size="13" lengthAdjust="spacingAndGlyphs" textLength="78" x="59" y="407.5591">提交异步任务</text><rect fill="#EEEEEE" filter="url(#fu4538b4iek3l)" height="3" style="stroke: #EEEEEE; stroke-width: 1.0;" width="755" x="3" y="441.1914"/><line style="stroke: #000000; stroke-width: 1.0;" x1="3" x2="758" y1="441.1914" y2="441.1914"/><line style="stroke: #000000; stroke-width: 1.0;" x1="3" x2="758" y1="444.1914" y2="444.1914"/><rect fill="#EEEEEE" filter="url(#fu4538b4iek3l)" height="23.1328" style="stroke: #000000; stroke-width: 2.0;" width="98" x="331.5" y="430.625"/><text fill="#000000" font-family="sans-serif" font-size="13" font-weight="bold" lengthAdjust="spacingAndGlyphs" textLength="84" x="337.5" y="446.6919">异步任务执行</text><path d="M147,470.7578 L224,470.7578 L224,477.7578 L214,487.7578 L147,487.7578 L147,470.7578 " fill="#EEEEEE" style="stroke: #000000; stroke-width: 1.0;"/><rect fill="none" height="75.3984" style="stroke: #000000; stroke-width: 2.0;" width="601" x="147" y="470.7578"/><text fill="#000000" font-family="sans-serif" font-size="13" font-weight="bold" lengthAdjust="spacingAndGlyphs" textLength="32" x="162" y="483.8247">loop</text><polygon fill="#A80036" points="696,505.0234,706,509.0234,696,513.0234,700,509.0234" style="stroke: #A80036; stroke-width: 1.0;"/><line style="stroke: #A80036; stroke-width: 1.0;" x1="434" x2="702" y1="509.0234" y2="509.0234"/><text fill="#000000" font-family="sans-serif" font-size="13" font-weight="bold" lengthAdjust="spacingAndGlyphs" textLength="9" x="441" y="503.9575">8</text><text fill="#000000" font-family="sans-serif" font-size="13" lengthAdjust="spacingAndGlyphs" textLength="78" x="454" y="503.9575">获取异步任务</text><polygon fill="#A80036" points="191,534.1563,181,538.1563,191,542.1563,187,538.1563" style="stroke: #A80036; stroke-width: 1.0;"/><line style="stroke: #A80036; stroke-width: 1.0;" x1="185" x2="588.5" y1="538.1563" y2="538.1563"/><text fill="#000000" font-family="sans-serif" font-size="13" font-weight="bold" lengthAdjust="spacingAndGlyphs" textLength="9" x="197" y="533.0903">9</text><text fill="#000000" font-family="sans-serif" font-size="13" lengthAdjust="spacingAndGlyphs" textLength="104" x="210" y="533.0903">任务任务回调执行</text></g></svg>